<svg width="24" height="24" viewBox="0 0 24 24" fill="none" xmlns="http://www.w3.org/2000/svg">
  <path d="M23.9174 17.6428C23.8547 17.3881 23.7533 17.1466 23.6174 16.9281C23.6466 16.8132 23.6687 16.6963 23.6838 16.5783C23.7801 15.8277 23.539 15.1411 23.0837 14.6094C22.8374 14.3194 22.5733 14.1278 22.2936 14.0103C22.4773 13.1642 22.57 12.2977 22.5703 11.4284C22.5693 10.8456 22.5285 10.2637 22.4485 9.68742C22.3159 8.75571 22.077 7.84552 21.7371 6.97786C21.5355 6.46832 21.3002 5.97524 21.0332 5.50247C20.8578 5.1878 20.6669 4.88363 20.4613 4.59129C20.3605 4.44343 20.2555 4.29909 20.1463 4.15847C19.7138 3.59276 19.2319 3.07373 18.7073 2.60865C18.5771 2.4916 18.4441 2.37834 18.3083 2.26898C16.4726 0.791118 14.2462 -0.00465893 11.9601 -2.95063e-05C6.09977 -2.95063e-05 1.35023 5.11644 1.35023 11.4288C1.34986 12.3091 1.44438 13.1864 1.63187 14.0428C1.38061 14.1608 1.1391 14.3438 0.915591 14.6094C0.4607 15.1407 0.219192 15.8249 0.31557 16.575C0.330571 16.6942 0.352321 16.8122 0.381572 16.9281C0.245732 17.1466 0.144345 17.3882 0.0815619 17.6428C-0.0579429 18.2151 -0.0121913 18.7313 0.16594 19.1837C-0.0275669 19.7751 0.0208098 20.4048 0.272444 20.9519C0.45545 21.3518 0.717209 21.6614 1.0401 21.9376C1.42373 22.2663 1.90413 22.5453 2.48352 22.8134C3.17467 23.1307 4.01845 23.4292 4.40209 23.5387C5.39325 23.8153 6.3439 23.9902 7.30694 23.9987C8.67949 24.0126 9.86115 23.6652 10.7072 22.7751C11.1231 22.83 11.5416 22.8577 11.9601 22.8573C12.4026 22.8564 12.8447 22.8265 13.2839 22.7678C14.1277 23.6627 15.3142 24.0138 16.6916 23.9995C17.6547 23.9914 18.6053 23.8161 19.5939 23.5391C19.9801 23.4296 20.8239 23.1315 21.5151 22.8138C22.0945 22.5453 22.5748 22.2663 22.9611 21.9384C23.2814 21.6618 23.5431 21.3526 23.7261 20.9528C23.8536 20.6813 23.929 20.3847 23.9479 20.0808C23.9667 19.7769 23.9285 19.472 23.8356 19.1845C24.0115 18.7322 24.0573 18.2147 23.9174 17.6428ZM22.9341 19.1454C23.1291 19.5437 23.1411 19.9932 22.9694 20.4122C22.7091 21.0467 22.0618 21.5471 20.8048 22.084C20.3118 22.2929 19.81 22.4761 19.301 22.6332C18.2671 22.922 17.3322 23.0684 16.5229 23.0684C15.1822 23.0684 14.1851 22.6702 13.5528 21.8835C12.483 22.08 11.3909 22.0869 10.319 21.9038C9.68565 22.6771 8.69411 23.0688 7.36506 23.0688C6.55579 23.0688 5.62088 22.9224 4.58659 22.6336C4.58059 22.6315 3.86507 22.418 3.08279 22.084C1.8265 21.5471 1.17885 21.0475 0.918216 20.4122C0.74646 19.9932 0.758835 19.5437 0.953842 19.1454C0.971843 19.1088 0.991344 19.0722 1.01159 19.0376C0.895117 18.8491 0.816925 18.6359 0.782205 18.4121C0.747486 18.1883 0.757033 17.9591 0.810212 17.7396C0.881497 17.4371 1.04074 17.1675 1.26435 16.9708C1.15993 16.7859 1.0914 16.5798 1.06297 16.3651C1.00034 15.8989 1.14397 15.4336 1.46724 15.0541C1.71887 14.7587 2.07476 14.596 2.46852 14.596H2.47902C2.1822 13.571 2.0317 12.5028 2.03275 11.4284C2.03275 5.5704 6.44141 0.820444 11.8806 0.820444C17.3202 0.820444 21.7292 5.56959 21.7292 11.4284C21.7299 12.5057 21.5781 13.5768 21.2792 14.6042C21.3268 14.5989 21.3737 14.5964 21.4194 14.5964C21.8132 14.5964 22.1691 14.7591 22.4207 15.0545C22.7436 15.4336 22.8876 15.8993 22.825 16.3655C22.7964 16.5801 22.7277 16.786 22.6232 16.9708C22.8469 17.1675 23.0062 17.4373 23.0774 17.74C23.1308 17.9594 23.1404 18.1886 23.1057 18.4124C23.071 18.6361 22.9926 18.8493 22.876 19.0376C22.8966 19.0726 22.9165 19.1084 22.9341 19.1454Z"
        fill="white" />
  <path d="M22.876 19.038C22.9925 18.8495 23.0707 18.6363 23.1054 18.4125C23.1401 18.1887 23.1306 17.9595 23.0774 17.74C23.0062 17.4374 22.8471 17.1677 22.6236 16.9708C22.7278 16.7857 22.7961 16.5803 22.8246 16.3655C22.8872 15.8993 22.7436 15.434 22.4203 15.0545C22.1691 14.7591 21.8128 14.5964 21.4191 14.5964C21.3733 14.5964 21.3268 14.5989 21.2792 14.6042C21.5777 13.5769 21.7291 12.506 21.7281 11.4288C21.7281 5.5704 17.319 0.82085 11.8802 0.82085C6.44141 0.82085 2.032 5.57 2.032 11.4288C2.03096 12.5032 2.18146 13.5714 2.47827 14.5964H2.46814C2.07438 14.5964 1.71812 14.7587 1.46686 15.0541C1.1436 15.4332 0.999967 15.8993 1.06259 16.3651C1.0911 16.5795 1.15972 16.7857 1.26398 16.9708C1.04033 17.1674 0.881071 17.437 0.809835 17.7396C0.756412 17.9592 0.746774 18.1885 0.781565 18.4124C0.816357 18.6363 0.894777 18.8496 1.01159 19.038C0.990796 19.0731 0.971402 19.109 0.953465 19.1458C0.758833 19.5441 0.746458 19.9936 0.918214 20.4126C1.17885 21.0471 1.82575 21.5475 3.08279 22.0844C3.57572 22.2933 4.07756 22.4766 4.58659 22.6336C5.6205 22.9224 6.55541 23.0688 7.36506 23.0688C8.69411 23.0688 9.68564 22.6775 10.319 21.9038C11.3908 22.0869 12.4829 22.0803 13.5524 21.8839C14.185 22.6706 15.1822 23.0692 16.5225 23.0692C17.3322 23.0692 18.2671 22.9228 19.301 22.6336C19.3074 22.6315 20.0225 22.418 20.8048 22.0844C22.0614 21.5475 22.7091 21.0471 22.9694 20.4126C23.1411 19.9936 23.1287 19.5441 22.9341 19.1458C22.9161 19.1088 22.8966 19.0726 22.876 19.038ZM9.8664 20.6924C9.81165 20.7953 9.75352 20.8958 9.69127 20.993C9.52903 21.2454 9.31337 21.4518 9.06237 21.5951C8.58461 21.8757 7.97971 21.9738 7.36544 21.9738C6.3949 21.9738 5.39999 21.7293 4.84235 21.5735C4.8146 21.5658 1.42411 20.5342 1.8535 19.6559C1.9255 19.5083 2.04438 19.4493 2.19401 19.4493C2.79853 19.4493 3.89919 20.4187 4.37208 20.4187C4.47784 20.4187 4.55209 20.3702 4.58284 20.2519C4.7846 19.4733 1.51898 19.1458 1.79387 18.0183C1.84262 17.8189 1.97388 17.7376 2.15913 17.7376C2.95828 17.7376 4.75197 19.2516 5.12699 19.2516C5.15586 19.2516 5.17649 19.2423 5.18774 19.2231L5.19224 19.2146C5.36849 18.9014 5.26724 18.6736 4.0612 17.8779L3.94532 17.8018C2.61777 16.9366 1.68624 16.4155 2.21651 15.7944C2.27726 15.7228 2.36351 15.6911 2.46852 15.6911C2.59302 15.6911 2.74378 15.7358 2.90953 15.8111C3.61081 16.1296 4.58209 16.998 4.98823 17.3768C5.05198 17.4366 5.11573 17.4968 5.17874 17.5578C5.17874 17.5578 5.6925 18.1334 6.00302 18.1334C6.03816 18.135 6.07301 18.1259 6.10368 18.1072C6.13435 18.0886 6.15961 18.061 6.17665 18.0276C6.39678 17.6277 4.12983 15.7773 4.00195 15.0134C3.91569 14.4964 4.06307 14.2344 4.33571 14.2344C4.46509 14.2344 4.62334 14.2938 4.7981 14.4134C5.33999 14.7835 6.38628 16.7198 6.76917 17.4736C6.8978 17.7258 7.1168 17.8328 7.31444 17.8328C7.70632 17.8328 8.01271 17.413 7.35044 16.8797C6.35478 16.0775 6.70429 14.7661 7.17906 14.6851C7.19941 14.6817 7.21997 14.6801 7.24056 14.6802C7.67257 14.6802 7.86308 15.4816 7.86308 15.4816C7.86308 15.4816 8.42185 16.9932 9.38113 18.026C10.2519 18.9636 10.3738 19.7328 9.8664 20.6924ZM12.9693 20.8694L12.9194 20.8759L12.8346 20.8865C12.7899 20.8915 12.7452 20.8963 12.7004 20.9007L12.6569 20.9048L12.6167 20.9084L12.5605 20.9133L12.4975 20.9182L12.4352 20.9222L12.4214 20.9235L12.3722 20.9267L12.3512 20.9279C12.3319 20.929 12.3125 20.93 12.2931 20.9308L12.2256 20.934L12.1637 20.9361L12.1229 20.9377H12.1019L12.0636 20.9385H12.0434L12.0051 20.9389L11.9526 20.9397H11.8798C11.8228 20.9397 11.7658 20.9393 11.7088 20.9377L11.6627 20.9369L11.6233 20.9357L11.5746 20.934L11.5138 20.9316L11.4591 20.9292L11.4448 20.9284L11.3927 20.9255L11.3496 20.9227L11.3158 20.9206C11.2736 20.9178 11.2313 20.9147 11.1891 20.9113L11.1444 20.9072L11.0889 20.9019L11.0233 20.8954C10.9869 20.8916 10.9505 20.8876 10.9142 20.8832H10.9123C11.4448 19.6039 11.1756 18.4088 10.0993 17.2507C9.39351 16.4912 8.92399 15.3701 8.82649 15.124C8.62923 14.3951 8.10759 13.5852 7.24093 13.5852C7.16781 13.5852 7.09468 13.5917 7.0223 13.6039C6.64241 13.6682 6.31053 13.9037 6.07352 14.2576C5.81813 13.9151 5.56913 13.6425 5.34449 13.4888C5.00511 13.2569 4.66684 13.1393 4.33721 13.1393C3.92582 13.1393 3.55793 13.3216 3.30142 13.6519L3.29505 13.66L3.2808 13.5949L3.28005 13.5917C3.23128 13.367 3.19038 13.1404 3.15742 12.9124C3.15742 12.9111 3.15742 12.9095 3.15667 12.9083L3.14917 12.8562C3.1421 12.8053 3.13547 12.7543 3.12929 12.7033L3.12067 12.6333L3.11279 12.5642L3.10566 12.4974L3.10491 12.4918C3.09564 12.4014 3.08752 12.311 3.08054 12.2204L3.07791 12.1859L3.07416 12.1265C3.07273 12.1102 3.07148 12.0939 3.07041 12.0777V12.0663C3.06735 12.0209 3.06473 11.9754 3.06254 11.93L3.05916 11.8588L3.05654 11.7966L3.05579 11.7774L3.05391 11.7205L3.05279 11.6717C3.05279 11.6518 3.05204 11.6326 3.05166 11.6131L3.05091 11.5517C3.05091 11.5313 3.05091 11.511 3.05016 11.4903V11.4288C3.05016 6.17529 7.0043 1.91631 11.8817 1.91631C16.7591 1.91631 20.7133 6.17529 20.7133 11.4288V11.5517L20.7122 11.6127L20.711 11.664C20.711 11.679 20.7103 11.6941 20.7099 11.7087C20.7099 11.7278 20.7088 11.7469 20.7084 11.7665V11.7677L20.7058 11.8344L20.7035 11.893L20.7028 11.9068L20.6998 11.969C20.6927 12.1025 20.6833 12.2355 20.6717 12.3685V12.3701C20.6694 12.3921 20.6679 12.4141 20.6653 12.4356L20.66 12.4873L20.6499 12.5882L20.6439 12.6394L20.6364 12.6996L20.6281 12.7647L20.6184 12.8379L20.6101 12.8957L20.6008 12.9608C20.5975 12.9825 20.594 13.0042 20.5903 13.0259L20.5798 13.0909C20.5626 13.1988 20.5432 13.3062 20.5216 13.4131L20.5089 13.477L20.4958 13.5408C20.2471 13.2805 19.9182 13.1389 19.5549 13.1389C19.2256 13.1389 18.8866 13.2561 18.548 13.4875C18.3229 13.6417 18.0743 13.9143 17.8182 14.2568C17.5812 13.9029 17.2493 13.6669 16.8698 13.6031C16.7974 13.5907 16.7244 13.5844 16.6511 13.5844C15.7841 13.5844 15.2628 14.3943 15.0656 15.1228C14.9677 15.3689 14.4978 16.4904 13.7917 17.2507C12.7161 18.4051 12.445 19.5949 12.9693 20.8694ZM22.0866 18.3079L22.0832 18.3189C22.0675 18.3626 22.0476 18.4044 22.0239 18.4437C22.0048 18.4751 21.9834 18.5048 21.9602 18.5332C21.9549 18.5397 21.9497 18.5463 21.9437 18.5524C21.9353 18.562 21.9266 18.5715 21.9178 18.5808C21.7611 18.7484 21.5218 18.8953 21.2518 19.0299C21.221 19.045 21.1899 19.06 21.1584 19.0747L21.1273 19.0897C21.1062 19.0998 21.0849 19.1096 21.0635 19.119C21.0424 19.129 21.0211 19.1388 20.9998 19.1483L20.9345 19.1772C20.7823 19.2447 20.6266 19.309 20.4748 19.3724L20.4095 19.3997L20.3454 19.4265L20.219 19.4806L20.1571 19.5075L20.0964 19.5339L20.0664 19.5477L20.0075 19.5742C19.5605 19.7812 19.2387 19.9915 19.3062 20.2523C19.3163 20.2909 19.3341 20.3265 19.3584 20.3568C19.4375 20.4459 19.5822 20.4317 19.7645 20.3609C19.7904 20.3511 19.8159 20.3406 19.841 20.3292L19.8567 20.3222C19.8987 20.3031 19.943 20.2816 19.988 20.2588L20.0218 20.2413C20.2449 20.1233 20.498 19.9655 20.7485 19.8215C20.849 19.7629 20.9507 19.7076 21.0538 19.6551C21.2912 19.5347 21.5143 19.4493 21.6939 19.4493C21.7779 19.4493 21.8526 19.468 21.9144 19.5107L21.9249 19.518C21.9717 19.5532 22.0095 19.6006 22.0348 19.6559C22.1233 19.8374 22.0491 20.0249 21.8754 20.2092C21.7086 20.3861 21.4494 20.5594 21.1543 20.7201L21.0883 20.7555C20.2108 21.2192 19.0617 21.569 19.046 21.5735C18.7396 21.6589 18.3016 21.7712 17.8084 21.8554L17.7353 21.8676L17.7233 21.8692C17.6115 21.8878 17.4993 21.9038 17.3869 21.9172L17.3764 21.9185C17.169 21.9442 16.9607 21.9611 16.752 21.9693H16.749C16.6736 21.9721 16.5983 21.9734 16.5225 21.9734H16.4355C16.3204 21.9719 16.2053 21.9665 16.0905 21.9571C16.0882 21.9571 16.0852 21.9571 16.0826 21.9563C15.9988 21.9496 15.9153 21.9398 15.8321 21.927C15.7761 21.9182 15.7202 21.9087 15.6645 21.8985L15.6258 21.8904H15.6228C15.5826 21.8821 15.5424 21.8728 15.5025 21.8627C15.4791 21.8572 15.4559 21.8512 15.4327 21.8448L15.4188 21.8408L15.3851 21.8314L15.3791 21.8298L15.3431 21.8184L15.3041 21.8062L15.2996 21.8046L15.2658 21.7936C15.2527 21.7895 15.2396 21.7846 15.2272 21.7801L15.1961 21.7692L15.1728 21.7602C15.1508 21.7519 15.129 21.7432 15.1072 21.7342L15.0862 21.7252L15.0693 21.7183C15.0362 21.7041 15.0033 21.6892 14.9707 21.6736L14.9493 21.6618L14.9456 21.6601C14.9229 21.6489 14.9004 21.6373 14.8781 21.6252L14.8732 21.6227L14.8518 21.6105C14.8137 21.589 14.7763 21.5661 14.7397 21.5418L14.7198 21.5288C14.7097 21.5221 14.6997 21.5151 14.6898 21.508L14.6636 21.4893L14.6358 21.469L14.6189 21.4555C14.6012 21.442 14.5839 21.4281 14.5668 21.4136L14.5398 21.3913C14.529 21.3819 14.5182 21.3724 14.5076 21.3628L14.4813 21.3384L14.4806 21.3376C14.4619 21.3201 14.4436 21.302 14.4258 21.2835L14.4247 21.2822C14.4154 21.2727 14.4063 21.2629 14.3973 21.253L14.3703 21.2237L14.3441 21.1932L14.3193 21.1631L14.3167 21.1598C14.274 21.1078 14.2345 21.0527 14.1986 20.9951L14.1843 20.9719C14.165 20.9418 14.1463 20.9112 14.128 20.8804C14.1146 20.8581 14.1014 20.8356 14.0887 20.8128L14.0647 20.7705L14.0613 20.7648L14.0392 20.7237C14.0349 20.7164 14.0309 20.709 14.0272 20.7014C14.0233 20.6933 14.0192 20.6854 14.0148 20.6778L14.0084 20.6652L14.0043 20.657C13.9965 20.6419 13.9889 20.6268 13.9814 20.6115L13.9709 20.5911L13.9604 20.5696L13.9499 20.5484C13.9237 20.492 13.8989 20.4347 13.8757 20.3768L13.8674 20.3552L13.8517 20.3133C13.8097 20.1995 13.7771 20.0819 13.7542 19.9618C13.7527 19.9549 13.7512 19.948 13.7504 19.9415C13.7431 19.9014 13.7373 19.8609 13.7332 19.8203L13.7313 19.7999C13.7286 19.7733 13.7266 19.7466 13.7253 19.7198L13.7245 19.6995C13.724 19.6862 13.7238 19.6729 13.7238 19.6596C13.717 19.1235 13.969 18.6077 14.5076 18.0276C15.4676 16.9952 16.0264 15.484 16.0264 15.484C16.0264 15.484 16.0414 15.4206 16.0721 15.3294C16.0936 15.2646 16.1188 15.2013 16.1475 15.1399L16.1524 15.1301C16.1715 15.0886 16.1929 15.048 16.2157 15.0081L16.2319 14.9808C16.2577 14.9379 16.287 14.8975 16.3192 14.86L16.3331 14.8446C16.3859 14.7827 16.4513 14.7351 16.524 14.7054L16.533 14.7022C16.5461 14.6977 16.5593 14.6939 16.5728 14.6908L16.5765 14.69C16.5916 14.6868 16.6069 14.6846 16.6223 14.6835H16.6238L16.6481 14.6827C16.6687 14.6819 16.6894 14.6835 16.7096 14.6875C16.7959 14.7026 16.8784 14.7579 16.9493 14.8433C16.9944 14.8977 17.032 14.9588 17.061 15.0248L17.0757 15.0573C17.115 15.1528 17.1432 15.2532 17.1597 15.3563C17.1748 15.454 17.1806 15.5531 17.1769 15.652C17.1705 15.8147 17.1394 15.9758 17.085 16.1279L17.0697 16.1703C17.0507 16.2202 17.0289 16.2689 17.0044 16.3159L16.9826 16.3574C16.9639 16.3915 16.9436 16.4257 16.9219 16.4599L16.9088 16.4802C16.8572 16.5575 16.7997 16.6301 16.737 16.697C16.6752 16.7637 16.609 16.8254 16.539 16.8817C16.4689 16.9378 16.4033 16.9997 16.3421 17.0672C16.167 17.2649 16.1265 17.4398 16.1659 17.572C16.1797 17.6168 16.2022 17.6579 16.2319 17.6924L16.2382 17.6993L16.2442 17.7063C16.2508 17.7129 16.2575 17.7193 16.2645 17.7254L16.2716 17.7315C16.2881 17.7453 16.3061 17.7579 16.3249 17.7689C16.3305 17.7722 16.3354 17.7754 16.3414 17.7783C16.362 17.7892 16.3826 17.7986 16.404 17.8055L16.422 17.8116L16.4295 17.8136L16.44 17.8169L16.449 17.8193L16.4588 17.8214L16.4685 17.8234L16.4779 17.825C16.4847 17.8267 16.4916 17.8279 16.4985 17.8287L16.5053 17.8295L16.5173 17.8311L16.5248 17.8319L16.5371 17.8328H16.5443L16.557 17.8336H16.5975L16.6088 17.8328L16.6223 17.8319L16.6384 17.8303L16.6534 17.8283C16.6571 17.8283 16.6605 17.8275 16.6639 17.8267C16.7108 17.8193 16.7561 17.8063 16.8 17.7868L16.8188 17.7787C16.8502 17.764 16.8803 17.7463 16.9088 17.7258C16.9353 17.7068 16.9604 17.6856 16.9838 17.6623L17.0003 17.6461C17.0029 17.6433 17.0054 17.6405 17.0078 17.6375C17.0516 17.589 17.0892 17.5343 17.1195 17.4748C17.3477 17.0281 17.5868 16.5881 17.8366 16.1552L17.8707 16.0958L17.9056 16.0368L17.9577 15.9482L17.9749 15.9185C18.0331 15.8208 18.0919 15.7232 18.1519 15.6268L18.1876 15.5698C18.2588 15.456 18.3301 15.3453 18.4006 15.24L18.4354 15.1879C18.5123 15.074 18.5918 14.9625 18.6747 14.8539L18.7077 14.8112C18.7133 14.8043 18.7182 14.7974 18.7242 14.7909L18.7565 14.7502C18.7617 14.7437 18.7666 14.7372 18.7726 14.7307L18.8037 14.6928L18.8195 14.6741C18.8346 14.6566 18.85 14.6392 18.8656 14.6221L18.8956 14.5887C18.9548 14.5236 19.0202 14.4654 19.0906 14.415L19.1067 14.4036C19.1221 14.3922 19.1382 14.3816 19.1551 14.3723C19.4304 14.2039 19.6584 14.1913 19.7896 14.3328C19.8691 14.4183 19.9134 14.5606 19.9107 14.7579L19.9104 14.7844V14.7941C19.9102 14.8032 19.9097 14.8123 19.9089 14.8214C19.9089 14.8328 19.9077 14.8437 19.9066 14.8551L19.904 14.8848L19.9029 14.8934C19.9022 14.9023 19.9013 14.9113 19.9002 14.9202C19.9002 14.9227 19.9002 14.9255 19.8991 14.9284L19.8946 14.9637C19.8932 14.9747 19.8914 14.9855 19.8894 14.9963L19.8864 15.0154C19.8835 15.0332 19.8797 15.0509 19.8751 15.0683C19.8657 15.1008 19.8549 15.1322 19.8417 15.1631C19.8139 15.2291 19.7813 15.2926 19.7442 15.353C19.6958 15.4341 19.6436 15.5124 19.5879 15.5877L19.5699 15.6126C19.505 15.6996 19.4382 15.7846 19.3692 15.868L19.3475 15.8945C19.3179 15.9298 19.2882 15.9652 19.2575 16.001L19.235 16.0279L19.1881 16.0816C19.1726 16.1 19.1569 16.1182 19.1408 16.1361L19.0928 16.1906L19.0441 16.2451L18.9953 16.3L18.8963 16.4098C18.4238 16.9317 17.9258 17.452 17.7574 17.7766C17.7462 17.7977 17.736 17.8194 17.727 17.8417C17.7027 17.9007 17.6929 17.9511 17.6997 17.9922C17.7019 18.0056 17.7064 18.0184 17.7128 18.03C17.7268 18.0558 17.7451 18.0784 17.7668 18.0968C17.8015 18.1233 17.8432 18.137 17.8857 18.1358H17.8992L17.9127 18.1346L17.9262 18.133L17.9374 18.1309C17.9393 18.1309 17.9408 18.1309 17.9423 18.1301L17.9528 18.1281L17.9554 18.1273L17.9667 18.1248L17.9708 18.1236L17.9832 18.1199L17.9978 18.1155C18.0345 18.1038 18.07 18.0883 18.1039 18.0691L18.1193 18.061C18.1568 18.0402 18.1932 18.0174 18.2284 17.993L18.2442 17.9816C18.2493 17.9782 18.2543 17.9745 18.2592 17.9707L18.2749 17.9593L18.2832 17.9532L18.3057 17.9365C18.3267 17.921 18.3458 17.9048 18.3657 17.8889L18.3676 17.8873L18.3987 17.8612C18.4414 17.8246 18.4819 17.788 18.5187 17.7534L18.5435 17.7307L18.5457 17.7282L18.5585 17.716C18.5885 17.6867 18.6155 17.6599 18.6372 17.6375L18.6466 17.6277C18.6548 17.6196 18.662 17.6119 18.6691 17.6054L18.6818 17.5915L18.6863 17.5867L18.6878 17.585L18.7013 17.5704L18.71 17.561L18.7111 17.5598L18.7148 17.5557L18.7201 17.5509L18.722 17.5492L18.7261 17.5452L18.7501 17.5228L18.7632 17.5098C18.7703 17.5031 18.7773 17.4963 18.7842 17.4894L18.8 17.4744L18.8086 17.4663L18.8251 17.4504L18.8498 17.4272L18.863 17.415L19.046 17.2458L19.0748 17.2193L19.1228 17.1758L19.1716 17.1319C19.2361 17.0745 19.3051 17.0139 19.3779 16.9505L19.4259 16.909C19.4848 16.8588 19.5439 16.8089 19.6032 16.7593C19.7469 16.639 19.893 16.5224 20.0416 16.4094L20.0863 16.3757L20.18 16.3065L20.2085 16.2862C20.264 16.2451 20.321 16.2052 20.378 16.1666L20.4061 16.1471L20.4343 16.1284L20.5183 16.073L20.546 16.0551L20.6019 16.0202L20.6566 15.9864L20.6679 15.9799L20.7107 15.9543L20.7647 15.9237L20.7917 15.9091L20.8175 15.8949L20.8445 15.8806C20.9188 15.8414 20.9947 15.8061 21.0722 15.7749L21.1198 15.7566L21.1614 15.7423L21.1663 15.7407L21.1877 15.7338L21.1899 15.7334C21.2049 15.7285 21.2199 15.7244 21.2342 15.7212H21.2353C21.2955 15.7055 21.3571 15.6966 21.4191 15.6947H21.4288C21.4419 15.6947 21.4547 15.6955 21.4671 15.6972C21.4727 15.6972 21.4783 15.6984 21.4839 15.6992H21.4866C21.4922 15.6996 21.4978 15.7004 21.5031 15.7021L21.5196 15.7053H21.5214L21.5376 15.7102C21.5817 15.7238 21.6225 15.748 21.6568 15.781L21.6598 15.7842C21.6619 15.7862 21.6639 15.7882 21.6658 15.7903L21.6714 15.7972C21.7182 15.8501 21.7569 15.9106 21.7862 15.9766L21.7907 15.988C21.8112 16.0384 21.8221 16.0927 21.823 16.1478C21.8238 16.2028 21.8145 16.2575 21.7956 16.3086C21.7848 16.3395 21.7716 16.3695 21.7562 16.3981C21.7199 16.4638 21.6768 16.5249 21.6279 16.5803L21.6174 16.5925C21.6017 16.6105 21.5855 16.6281 21.5691 16.6454L21.5458 16.6686L21.5222 16.6926L21.5098 16.7044C21.4615 16.7507 21.4114 16.795 21.3598 16.837C21.2505 16.9275 21.1378 17.013 21.0219 17.0932C20.9147 17.1689 20.8067 17.2425 20.6972 17.3145C20.468 17.4663 20.2134 17.6286 19.9426 17.8051L19.8725 17.8511C19.796 17.9015 19.7232 17.9495 19.655 17.9955L19.6209 18.0191L19.5556 18.0638L19.4266 18.1533L19.3921 18.1781L19.3415 18.2139L19.325 18.2253L19.2747 18.2619L19.2481 18.2814L19.217 18.305L19.1877 18.3266C19.139 18.3636 19.094 18.399 19.0527 18.4324L19.037 18.4454C18.9784 18.4933 18.9213 18.5435 18.866 18.5959L18.8513 18.6105L18.827 18.6349L18.8112 18.6512L18.8037 18.6593C18.7872 18.6776 18.7707 18.6959 18.755 18.7151L18.7475 18.7244C18.7315 18.7442 18.7165 18.7648 18.7025 18.7863L18.6965 18.7952C18.6837 18.8152 18.6721 18.8361 18.662 18.8578L18.6563 18.87L18.6526 18.8798L18.65 18.8859L18.6481 18.8916L18.6455 18.8993C18.6383 18.9205 18.6333 18.9425 18.6305 18.9648L18.6293 18.973L18.6286 18.9799V19.0197C18.6286 19.023 18.6286 19.0263 18.6293 19.0295L18.6301 19.0356L18.6312 19.0454C18.6317 19.05 18.6324 19.0546 18.6335 19.0592V19.06L18.6361 19.073C18.6372 19.0771 18.638 19.0824 18.6395 19.0869C18.6417 19.0958 18.6444 19.1046 18.6473 19.1133L18.653 19.1292L18.6541 19.132L18.6582 19.1422L18.6642 19.1564C18.6706 19.1707 18.6773 19.1849 18.6848 19.1983L18.6923 19.2126L18.7002 19.2272C18.7017 19.2295 18.7033 19.2317 18.7051 19.2337L18.7077 19.2366L18.7107 19.2398L18.7137 19.2423C18.7204 19.2474 18.7281 19.2509 18.7362 19.2524C18.8037 19.2687 18.9417 19.2089 19.1251 19.1044L19.1581 19.0856L19.2143 19.0531L19.2413 19.0368C19.2609 19.0254 19.2807 19.0124 19.301 19.0002L19.3377 18.9778C19.5804 18.8273 19.8702 18.6341 20.1703 18.445L20.2546 18.3921L20.3113 18.3534C20.4593 18.2609 20.6096 18.1727 20.762 18.089L20.8175 18.0585C20.9226 18.0014 21.0295 17.9484 21.1382 17.8999L21.1772 17.8828L21.182 17.8808C21.3887 17.7925 21.5762 17.738 21.7281 17.738C21.7607 17.738 21.7937 17.7404 21.8256 17.7465H21.8271C21.8369 17.7484 21.8467 17.7507 21.8563 17.7534H21.8582C21.9111 17.7665 21.9598 17.7946 21.9993 17.8348C22.0389 17.8751 22.0678 17.926 22.0832 17.9825L22.0937 18.0183C22.1184 18.1134 22.1159 18.2143 22.0866 18.3079Z"
        fill="#FF9D00" />
  <path fill-rule="evenodd" clip-rule="evenodd"
        d="M20.7118 11.4903V11.4288C20.7118 6.17488 16.7591 1.9159 11.8817 1.9159C7.0043 1.9159 3.05016 6.17488 3.05016 11.4288V11.4903C3.05091 11.5106 3.05091 11.5309 3.05091 11.5513L3.05166 11.5968V11.6131L3.05241 11.6355L3.05279 11.6713L3.05429 11.7201L3.05616 11.7774L3.05654 11.7966L3.05879 11.856V11.8588L3.06216 11.928V11.93L3.06591 12.0008L3.06966 12.0663L3.07004 12.0703L3.07379 12.1265V12.1313L3.07754 12.1859L3.07792 12.1891L3.08054 12.2204C3.08729 12.3111 3.09554 12.4014 3.10492 12.4918L3.10529 12.4974L3.11279 12.5638L3.12029 12.6337L3.12629 12.6809L3.12892 12.7029C3.13492 12.7541 3.14167 12.8054 3.14917 12.8562V12.8595L3.15667 12.9079C3.18967 13.1373 3.23092 13.3655 3.28005 13.5921L3.28042 13.5949L3.28417 13.6116L3.29467 13.66L3.30142 13.6519C3.55756 13.3216 3.92544 13.1393 4.33683 13.1393C4.66685 13.1393 5.00511 13.2573 5.34412 13.4884C5.56913 13.6425 5.81776 13.9151 6.07352 14.258C6.31053 13.9037 6.64204 13.6682 7.02193 13.6039C7.09425 13.5916 7.16735 13.5853 7.24056 13.5852C8.10722 13.5852 8.62923 14.3951 8.82649 15.124C8.92399 15.3701 9.39313 16.4908 10.1015 17.2494C11.1778 18.408 11.4467 19.6027 10.9142 20.8824H10.9161C10.9524 20.8869 10.9888 20.8909 11.0256 20.8946L11.0908 20.9011L11.0983 20.9019L11.1467 20.906L11.1909 20.91C11.2333 20.9137 11.2753 20.917 11.3177 20.9198L11.3515 20.9218L11.3781 20.9235L11.3946 20.9247L11.4471 20.9275L11.461 20.9284L11.5157 20.9308L11.5765 20.9332L11.6252 20.9349H11.6335L11.6646 20.9361H11.6758C11.7445 20.9381 11.8131 20.9389 11.8821 20.9389H11.9548L12.007 20.9381L12.0456 20.9377H12.0659L12.0835 20.9369H12.1251L12.166 20.9353L12.2275 20.9332L12.295 20.93L12.3531 20.9271L12.3741 20.9255L12.4052 20.9239L12.4232 20.9227L12.4371 20.9218L12.4997 20.9174L12.562 20.9125L12.619 20.9076L12.6587 20.9035L12.7026 20.8995C12.7758 20.8926 12.8489 20.8844 12.9216 20.8751L12.9715 20.8686C12.4472 19.5941 12.7184 18.4043 13.7902 17.2507C14.4967 16.49 14.9662 15.3693 15.0641 15.1232C15.2613 14.3943 15.783 13.5844 16.6496 13.5844C16.7231 13.5844 16.7963 13.5905 16.8686 13.6031C17.2482 13.6673 17.58 13.9025 17.8171 14.2568C18.0732 13.9143 18.3214 13.6413 18.5465 13.4876C18.8855 13.2561 19.2241 13.1385 19.5537 13.1385C19.9168 13.1385 20.2456 13.2805 20.4943 13.5408L20.5078 13.477L20.5205 13.4135L20.5336 13.3436C20.5411 13.3029 20.549 13.2618 20.5561 13.2203C20.5644 13.1772 20.5715 13.1341 20.5786 13.0909L20.5824 13.0673C20.5843 13.0539 20.5861 13.0401 20.5888 13.0259C20.5925 13.0043 20.5963 12.9827 20.5993 12.9608L20.6008 12.9526L20.609 12.8957L20.6169 12.8383V12.8375C20.6229 12.7952 20.6285 12.7525 20.6338 12.7102L20.6353 12.6996L20.6428 12.6394L20.6484 12.5882L20.6589 12.4873L20.663 12.4466L20.6642 12.436L20.6702 12.3701V12.3685C20.6717 12.351 20.6735 12.3339 20.6747 12.3164C20.6829 12.2176 20.69 12.1179 20.6957 12.0183L20.6983 11.969V11.9682L20.7013 11.9064L20.702 11.893C20.7039 11.8511 20.7058 11.8096 20.7069 11.7677V11.7665L20.7077 11.7502C20.7082 11.7364 20.7084 11.7225 20.7084 11.7087L20.7088 11.703C20.7092 11.69 20.7099 11.677 20.7099 11.6636V11.6526L20.7107 11.6131L20.711 11.6017L20.7118 11.5517V11.4903ZM9.69127 20.993C10.3907 19.8882 10.3412 19.0592 9.38151 18.026C8.42185 16.9928 7.86383 15.482 7.86383 15.482C7.86383 15.482 7.65532 14.6046 7.17981 14.6851C6.70429 14.7657 6.35553 16.0771 7.35119 16.8797C8.34647 17.6827 7.15281 18.2269 6.76992 17.4736C6.38665 16.7202 5.34074 14.7835 4.7981 14.4134C4.25583 14.0432 3.87444 14.2507 4.00232 15.0138C4.06607 15.3929 4.65635 16.0397 5.20836 16.6442C5.76788 17.2572 6.28803 17.8263 6.17665 18.0276C5.95614 18.4279 5.17911 17.5578 5.17911 17.5578C5.17911 17.5578 2.74603 15.1728 2.21651 15.7944C1.72824 16.3671 2.48127 16.8541 3.64156 17.6046L3.9457 17.8018C5.27324 18.6675 5.37637 18.8961 5.18811 19.2235C5.11836 19.3444 4.67435 19.0568 4.12758 18.7037C3.19604 18.1012 1.9675 17.3068 1.79387 18.0178C1.64387 18.6333 2.54765 19.0104 3.36743 19.3521C4.04995 19.6372 4.67472 19.898 4.58247 20.2515C4.48759 20.6184 3.9712 20.3125 3.40755 19.9781C2.77378 19.6027 2.08001 19.1914 1.85312 19.6555C1.42373 20.533 4.81385 21.5658 4.84198 21.5735C5.93701 21.8794 8.71924 22.5278 9.69127 20.993ZM14.1971 20.993C13.4977 19.8882 13.5472 19.0592 14.5068 18.026C15.4665 16.9928 16.0249 15.482 16.0249 15.482C16.0249 15.482 16.2334 14.6046 16.7089 14.6851C17.1844 14.7657 17.5332 16.0771 16.5375 16.8797C15.5422 17.6827 16.7355 18.2269 17.1188 17.4736C17.502 16.7202 18.5476 14.7835 19.0898 14.4134C19.6321 14.0432 20.0135 14.2507 19.8856 15.0138C19.8222 15.3929 19.2316 16.0397 18.68 16.6442C18.1201 17.2572 17.5999 17.8263 17.7113 18.0276C17.9318 18.4279 18.7096 17.5574 18.7096 17.5574C18.7096 17.5574 21.1419 15.1728 21.6718 15.794C22.1597 16.3667 21.4071 16.8536 20.2468 17.6042C20.1455 17.6701 20.0439 17.7355 19.9426 17.8018C18.6151 18.6671 18.512 18.8957 18.7002 19.2231C18.77 19.3439 19.214 19.0564 19.7607 18.7033C20.6923 18.1008 21.9208 17.3064 22.0945 18.0174C22.2445 18.6329 21.3407 19.01 20.5209 19.3517C19.8384 19.6368 19.2136 19.8976 19.3055 20.2511C19.4004 20.618 19.9168 20.3121 20.4804 19.9777C21.1138 19.6023 21.8079 19.1906 22.0348 19.6551C22.4642 20.533 19.0733 21.565 19.046 21.5723C17.9506 21.8794 15.1687 22.5282 14.1971 20.993Z"
        fill="#FFD21E" />
  <path fill-rule="evenodd" clip-rule="evenodd"
        d="M14.7498 8.83928C14.8878 8.89216 14.9898 9.05162 15.0873 9.20335C15.2193 9.40877 15.342 9.59996 15.5298 9.49216C15.7514 9.36551 15.9333 9.17043 16.0526 8.93162C16.2023 8.63234 16.2431 8.2831 16.1671 7.95276C16.0911 7.62243 15.9037 7.33497 15.642 7.14708C15.4859 7.03446 15.3089 6.96051 15.1235 6.93048C14.9381 6.90045 14.7489 6.91507 14.5693 6.97332C14.3897 7.03156 14.2241 7.132 14.0843 7.26748C13.9446 7.40297 13.834 7.57019 13.7605 7.75725C13.6884 7.94395 13.6555 8.14576 13.6642 8.34799C13.673 8.55022 13.7232 8.74779 13.8112 8.92633C13.8985 9.10287 14.092 9.01989 14.2961 8.93162C14.4562 8.86247 14.6227 8.79087 14.7498 8.83928ZM8.76311 8.83928C8.62548 8.89216 8.52311 9.05162 8.4256 9.20335C8.29397 9.40918 8.17134 9.59996 7.98309 9.49216C7.70469 9.3336 7.49076 9.0682 7.38307 8.74775C7.27576 8.42809 7.28286 8.0764 7.40294 7.76213C7.52332 7.44769 7.74795 7.19264 8.03296 7.0466C8.28909 6.91573 8.57801 6.88075 8.85444 6.94715C9.13086 7.01355 9.37916 7.17758 9.56039 7.41352C9.72025 7.62176 9.81914 7.87704 9.8444 8.14664C9.86965 8.41623 9.82012 8.68787 9.70215 8.92674C9.61477 9.10287 9.42089 9.01989 9.21688 8.93162C9.05712 8.86247 8.89062 8.79087 8.76311 8.83928ZM13.8239 14.7079C14.7727 13.9025 15.1215 12.5878 15.1215 11.7779C15.1215 11.138 14.7213 11.3393 14.0812 11.6806L14.0452 11.6998C13.4575 12.013 12.6756 12.4307 11.8168 12.4307C10.9581 12.4307 10.1762 12.0134 9.58852 11.6998C8.92774 11.3471 8.51336 11.1262 8.51336 11.7783C8.51336 12.6138 8.88387 13.9854 9.90165 14.7823C10.0363 14.4884 10.2255 14.2277 10.4574 14.0168C10.6898 13.8052 10.9598 13.6476 11.2506 13.5539C11.3522 13.5213 11.4568 13.7096 11.5641 13.9029C11.6672 14.0888 11.773 14.2791 11.8806 14.2791C11.995 14.2791 12.1075 14.0916 12.2174 13.9086C12.3321 13.7174 12.4442 13.5307 12.5522 13.5681C13.0959 13.7555 13.5519 14.164 13.8239 14.7079Z"
        fill="#32343D" />
  <path d="M13.8239 14.7079C13.3297 15.1269 12.6726 15.4088 11.8172 15.4088C11.0132 15.4088 10.3847 15.1606 9.90166 14.7823C10.0363 14.4883 10.2255 14.2277 10.4574 14.0168C10.6898 13.8052 10.9598 13.6476 11.2506 13.5539C11.4501 13.4896 11.6616 14.2787 11.8806 14.2787C12.115 14.2787 12.3407 13.4949 12.5526 13.5677C13.0963 13.7553 13.5519 14.1639 13.8239 14.7079Z"
        fill="#FF323D" />
  <path fill-rule="evenodd" clip-rule="evenodd"
        d="M6.4939 9.97827C6.38081 10.0598 6.25096 10.11 6.11579 10.1243C5.98061 10.1387 5.84427 10.1167 5.71875 10.0604C5.61873 10.0159 5.52776 9.95051 5.45106 9.86787C5.37436 9.78523 5.31342 9.68701 5.27174 9.57881C5.21973 9.44369 5.19949 9.29668 5.21284 9.15098C5.2262 9.00528 5.27272 8.86546 5.34824 8.7441C5.4393 8.59747 5.56836 8.48338 5.71913 8.41623C5.87008 8.3491 6.0359 8.33163 6.19594 8.36598C6.35598 8.40034 6.50316 8.48501 6.61916 8.60945C6.73426 8.73364 6.81273 8.89215 6.84458 9.06482C6.87643 9.2375 6.86023 9.41655 6.79804 9.57921C6.73579 9.74193 6.62966 9.88023 6.4939 9.97827ZM18.3113 9.97827C18.1983 10.0597 18.0685 10.1098 17.9334 10.1242C17.7983 10.1385 17.662 10.1166 17.5365 10.0604C17.3345 9.97056 17.1735 9.79733 17.0891 9.57881C17.0132 9.38147 17.0057 9.16099 17.0681 8.95812C17.1304 8.75526 17.2583 8.58372 17.4282 8.47522C17.5416 8.40214 17.6695 8.35951 17.8012 8.35086C17.9329 8.34221 18.0646 8.36779 18.1854 8.42548C18.3061 8.48318 18.4124 8.57131 18.4955 8.68255C18.5785 8.79379 18.6358 8.92492 18.6627 9.06505C18.6944 9.23791 18.678 9.41711 18.6154 9.57977C18.5528 9.74242 18.4469 9.88116 18.3113 9.97827Z"
        fill="#FFAD03" />
</svg>